<svg xmlns:dc="http://purl.org/dc/elements/1.1/" xmlns:cc="http://creativecommons.org/ns#" xmlns:rdf="http://www.w3.org/1999/02/22-rdf-syntax-ns#" xmlns:svg="http://www.w3.org/2000/svg" xmlns="http://www.w3.org/2000/svg" xmlns:sodipodi="http://sodipodi.sourceforge.net/DTD/sodipodi-0.dtd" xmlns:inkscape="http://www.inkscape.org/namespaces/inkscape" width="100" height="100" viewBox="0 0 80 80" version="1.1" id="svg2" inkscape:version="0.48.2 r9819" sodipodi:docname="blank.svg">
  <metadata id="metadata10">
    <rdf:RDF>
      <cc:Work rdf:about="">
        <dc:format>image/svg+xml</dc:format>
        <dc:type rdf:resource="http://purl.org/dc/dcmitype/StillImage"/>
        <dc:title/>
      </cc:Work>
    </rdf:RDF>
  </metadata>
  <defs id="defs8">
    <inkscape:path-effect fuse_tolerance="0" vertical_pattern="false" prop_units="false" tang_offset="0" normal_offset="0" spacing="0" scale_y_rel="false" prop_scale="0.5" copytype="single_stretched" pattern="m -0.18123254,-9.5147076 0,10.00000104 L 9.8187675,-4.5147066 z" is_visible="true" id="path-effect3848" effect="skeletal"/>
    <inkscape:path-effect effect="skeletal" id="path-effect3844" is_visible="true" pattern="m 1.1780115,-7.4305336 0,10.000001 9.9999995,-5 z" copytype="single_stretched" prop_scale="0.5" scale_y_rel="false" spacing="0" normal_offset="0" tang_offset="0" prop_units="false" vertical_pattern="false" fuse_tolerance="0"/>
    <inkscape:path-effect fuse_tolerance="0" vertical_pattern="false" prop_units="false" tang_offset="0" normal_offset="0" spacing="0" scale_y_rel="false" prop_scale="0.5" copytype="single_stretched" pattern="m 0.5436976,-10.149022 0,10.0000014 10.0000004,-5.0000005 z" is_visible="true" id="path-effect3840" effect="skeletal"/>
    <inkscape:path-effect effect="skeletal" id="path-effect3836" is_visible="true" pattern="m -3.0809531,-17.851405 0,10.000001 10,-5 z" copytype="single_stretched" prop_scale="0.5" scale_y_rel="false" spacing="0" normal_offset="0" tang_offset="0" prop_units="false" vertical_pattern="false" fuse_tolerance="0"/>
    <inkscape:path-effect fuse_tolerance="0" vertical_pattern="false" prop_units="false" tang_offset="0" normal_offset="0" spacing="0" scale_y_rel="false" prop_scale="0.5" copytype="single_stretched" pattern="m -1.8123254,-3.443418 0,10 10.0000002,-5 z" is_visible="true" id="path-effect3832" effect="skeletal"/>
    <inkscape:path-effect effect="skeletal" id="path-effect3828" is_visible="true" pattern="m -0.45308136,-16.039079 0,9.9999998 9.99999996,-4.9999998 z" copytype="single_stretched" prop_scale="0.5" scale_y_rel="false" spacing="0" normal_offset="0" tang_offset="0" prop_units="false" vertical_pattern="false" fuse_tolerance="0"/>
    <inkscape:path-effect fuse_tolerance="0" vertical_pattern="false" prop_units="false" tang_offset="0" normal_offset="0" spacing="0" scale_y_rel="false" prop_scale="0.5" copytype="single_stretched" pattern="m -0.2718488,-8.7897779 0,10 10,-5 z" is_visible="true" id="path-effect3824" effect="skeletal"/>
    <inkscape:path-effect effect="skeletal" id="path-effect3820" is_visible="true" pattern="M 0,0 0,10 10,5 z" copytype="single_stretched" prop_scale="1" scale_y_rel="false" spacing="0" normal_offset="0" tang_offset="0" prop_units="false" vertical_pattern="false" fuse_tolerance="0"/>
    <inkscape:path-effect effect="spiro" id="path-effect3818" is_visible="true"/>
    <inkscape:path-effect effect="skeletal" id="path-effect3814" is_visible="true" pattern="M 0,0 0,10 10,5 z" copytype="single_stretched" prop_scale="0.3" scale_y_rel="false" spacing="0" normal_offset="0" tang_offset="3.5" prop_units="false" vertical_pattern="false" fuse_tolerance="0"/>
    <inkscape:path-effect effect="spiro" id="path-effect3812" is_visible="true"/>
    <inkscape:path-effect effect="skeletal" id="path-effect3808" is_visible="true" pattern="M 0,0 0,10 10,5 z" copytype="single_stretched" prop_scale="0.5" scale_y_rel="false" spacing="0" normal_offset="0" tang_offset="0" prop_units="false" vertical_pattern="false" fuse_tolerance="0"/>
    <inkscape:path-effect effect="skeletal" id="path-effect3802" is_visible="true" pattern="M 0,0 0,10 10,5 z" copytype="single_stretched" prop_scale="1" scale_y_rel="false" spacing="0" normal_offset="0" tang_offset="0" prop_units="false" vertical_pattern="false" fuse_tolerance="0"/>
    <inkscape:path-effect effect="skeletal" id="path-effect3798" is_visible="true" pattern="M 0,0 0,10 10,5 z" copytype="single_stretched" prop_scale="1" scale_y_rel="false" spacing="0" normal_offset="0" tang_offset="0" prop_units="false" vertical_pattern="false" fuse_tolerance="0"/>
    <inkscape:path-effect effect="skeletal" id="path-effect3794" is_visible="true" pattern="M 0,0 0,10 10,5 z" copytype="single_stretched" prop_scale="1" scale_y_rel="false" spacing="0" normal_offset="0" tang_offset="0" prop_units="false" vertical_pattern="false" fuse_tolerance="0"/>
    <inkscape:path-effect effect="skeletal" id="path-effect3790" is_visible="true" pattern="M 0,0 0,10 10,5 z" copytype="single_stretched" prop_scale="1" scale_y_rel="false" spacing="0" normal_offset="0" tang_offset="0" prop_units="false" vertical_pattern="false" fuse_tolerance="0"/>
    <inkscape:path-effect effect="skeletal" id="path-effect3786" is_visible="true" pattern="M 0,0 0,10 10,5 z" copytype="single_stretched" prop_scale="1" scale_y_rel="false" spacing="0" normal_offset="0" tang_offset="0" prop_units="false" vertical_pattern="false" fuse_tolerance="0"/>
    <inkscape:path-effect effect="skeletal" id="path-effect3782" is_visible="true" pattern="M 0,0 0,10 10,5 z" copytype="single_stretched" prop_scale="1" scale_y_rel="false" spacing="0" normal_offset="0" tang_offset="0" prop_units="false" vertical_pattern="false" fuse_tolerance="0"/>
    <inkscape:path-effect effect="skeletal" id="path-effect3778" is_visible="true" pattern="M 0,0 0,10 10,5 z" copytype="single_stretched" prop_scale="1" scale_y_rel="false" spacing="0" normal_offset="0" tang_offset="0" prop_units="false" vertical_pattern="false" fuse_tolerance="0"/>
    <inkscape:path-effect effect="skeletal" id="path-effect3774" is_visible="true" pattern="M 0,0 0,10 10,5 z" copytype="single_stretched" prop_scale="1" scale_y_rel="false" spacing="0" normal_offset="0" tang_offset="0" prop_units="false" vertical_pattern="false" fuse_tolerance="0"/>
    <inkscape:path-effect effect="skeletal" id="path-effect3770" is_visible="true" pattern="M 0,0 0,10 10,5 z" copytype="single_stretched" prop_scale="1" scale_y_rel="false" spacing="0" normal_offset="0" tang_offset="0" prop_units="false" vertical_pattern="false" fuse_tolerance="0"/>
    <inkscape:path-effect effect="skeletal" id="path-effect3766" is_visible="true" pattern="M 0,0 0,10 10,5 z" copytype="single_stretched" prop_scale="1" scale_y_rel="false" spacing="0" normal_offset="0" tang_offset="0" prop_units="false" vertical_pattern="false" fuse_tolerance="0"/>
    <inkscape:path-effect effect="skeletal" id="path-effect2994" is_visible="true" pattern="M 0,0 0,10 10,5 z" copytype="single_stretched" prop_scale="1" scale_y_rel="false" spacing="0" normal_offset="0" tang_offset="0" prop_units="false" vertical_pattern="false" fuse_tolerance="0"/>
    <inkscape:path-effect effect="skeletal" id="path-effect2990" is_visible="true" pattern="M 0,5 10,10 10,0 z" copytype="single_stretched" prop_scale="1" scale_y_rel="false" spacing="0" normal_offset="0" tang_offset="0" prop_units="false" vertical_pattern="false" fuse_tolerance="0"/>
    <inkscape:path-effect effect="skeletal" id="path-effect2986" is_visible="true" pattern="M 0,5 10,10 10,0 z" copytype="single_stretched" prop_scale="1" scale_y_rel="false" spacing="0" normal_offset="0" tang_offset="0" prop_units="false" vertical_pattern="false" fuse_tolerance="0"/>
    <inkscape:path-effect is_visible="true" id="path-effect5043" effect="spiro"/>
    <inkscape:path-effect is_visible="true" id="path-effect5065" effect="spiro"/>
  </defs>
  <sodipodi:namedview pagecolor="#ffffff" bordercolor="#666666" borderopacity="1" objecttolerance="10" gridtolerance="10" guidetolerance="10" inkscape:pageopacity="0" inkscape:pageshadow="2" inkscape:window-width="1366" inkscape:window-height="706" id="namedview6" showgrid="true" inkscape:zoom="1.827871" inkscape:cx="50" inkscape:cy="50" inkscape:window-x="-8" inkscape:window-y="-8" inkscape:window-maximized="1" inkscape:current-layer="svg2" inkscape:snap-grids="false">
    <inkscape:grid type="xygrid" id="grid3807"/>
  </sodipodi:namedview>
  <path style="fill:#000000;fill-rule:evenodd;stroke:none" d="M 8.7452081,2.218882 C 6.2876948,1.3680651 4.1009536,1.1586959 2.5121511,2.3374706 -2.4359032,9.1668421 3.603207,21.631415 6.9812827,26.022871 c 3.1716673,3.967691 7.1127783,6.726543 10.8584593,7.983571 0.205367,0.775158 0.389002,1.54679 0.616147,2.320603 1.101456,3.757047 2.466701,7.496542 4.2138,11.067972 1.791822,3.711123 4.113456,7.358068 7.281911,10.285381 3.056819,2.827887 7.078175,4.61311 11.268251,4.618886 1.71573,-0.03173 3.462148,0.198804 5.205306,0.52662 0.08415,0.211239 0.157022,0.420302 0.244524,0.630692 1.305285,3.198253 3.199829,6.379897 6.062308,8.436277 3.438769,2.407741 7.75602,2.771681 11.708904,2.278921 -3.982249,0.09977 -8.15185,-0.71092 -10.976521,-3.211029 -2.239977,-1.928369 -3.529196,-4.711648 -4.486196,-7.581625 0.40819,0.105187 0.81452,0.213645 1.221429,0.329275 3.279236,0.940365 6.506243,2.222457 9.494819,3.910708 2.602073,1.480772 5.065595,3.209553 6.870364,5.57639 0.716972,0.940882 1.340728,1.970615 1.63299,3.119566 0.270993,1.060048 0.249305,2.229545 -0.09565,3.296291 0.436926,-1.032491 0.552324,-2.211167 0.366212,-3.344106 -0.201794,-1.221343 -0.71138,-2.380461 -1.378171,-3.426435 -1.666857,-2.617845 -4.130012,-4.674193 -6.679093,-6.412869 -2.93087,-2.011381 -6.111414,-3.664233 -9.450022,-4.944507 -0.925356,-0.357502 -1.874803,-0.681199 -2.834466,-0.979946 -0.249215,-0.985476 -0.480526,-1.995064 -0.697853,-3.001531 1.877351,1.231618 3.750835,2.462957 5.63018,3.683704 4.81934,3.193392 10.535288,5.719826 16.337976,5.42272 1.854991,-0.07434 3.861274,-0.61826 5.112113,-2.040929 1.25993,-1.497677 1.229536,-3.573584 0.756018,-5.340278 0.303897,1.803628 0.111756,3.826945 -1.136125,4.986799 -1.197479,1.171814 -3.050687,1.414132 -4.762868,1.369688 -5.469186,-0.202622 -10.451083,-3.141257 -14.782426,-6.530349 -2.779193,-2.206948 -5.510379,-4.42451 -8.258235,-6.653172 -0.02822,-0.121447 -0.06016,-0.236141 -0.08897,-0.357716 -0.238676,-1.041017 -0.509669,-2.099001 -0.823748,-3.15527 0.366456,0.225286 0.733331,0.449469 1.094927,0.682146 4.629419,2.964454 8.850466,7.23677 14.113579,9.91077 1.994803,1.026281 4.291173,1.630936 6.524786,1.289269 2.73692,-0.450838 5.004742,-2.124331 6.891011,-3.973538 -2.067303,1.644333 -4.450531,3.034747 -6.958795,3.152793 -2.01839,0.119495 -3.984794,-0.664522 -5.705854,-1.755925 -3.303412,-2.111374 -6.075307,-4.991359 -9.04084,-7.802583 1.059494,0.44427 2.180724,0.802283 3.318076,1.044718 1.976583,0.401117 3.881764,0.39056 5.725837,0.387413 2.069309,0.0025 4.149049,0.152265 6.140444,0.644656 0.744446,0.182419 1.466579,0.389784 2.195305,0.642206 -0.918769,0.728669 -1.941833,1.387353 -2.934357,2.025207 1.094434,-0.584083 2.221692,-1.196402 3.255148,-1.910204 2.288343,0.824486 4.497873,1.967125 6.63251,3.210393 -1.872018,-1.376478 -3.844583,-2.665417 -5.941894,-3.72305 0.575805,-0.459582 1.118222,-0.969645 1.576735,-1.570661 0.364256,-0.467393 0.637782,-1.053963 0.621019,-1.732274 -0.04428,-0.620847 -0.361445,-1.182523 -0.772924,-1.580362 C 71.594139,47.278249 70.932052,46.899502 70.278302,46.57886 69.375178,46.129239 68.436231,45.755878 67.501338,45.438513 64.939957,44.567151 62.323474,43.922075 59.735154,43.26978 52.801,41.518784 45.871962,39.830525 39.266827,37.452396 c -0.506283,-0.183441 -0.992974,-0.381988 -1.496218,-0.572599 -0.65276,-0.565509 -1.338648,-1.088648 -2.03369,-1.597923 5.254709,0.720663 10.588033,1.460862 16.026289,1.545971 5.985259,0.09126 11.611325,-1.143191 17.149682,-0.476827 2.022469,0.250646 4.071186,0.906044 5.553928,2.280691 1.861959,1.684764 2.81897,4.272652 3.37069,6.855902 C 77.555753,42.86117 76.867713,40.128004 75.040617,38.040972 73.532829,36.358013 71.375339,35.365969 69.182851,34.891113 63.41961,33.612177 57.445604,34.229579 51.98718,33.577554 45.900226,32.86409 39.883114,31.205534 33.705678,29.738809 c 0.142999,-0.05652 0.281718,-0.115572 0.424294,-0.17371 2.779842,-1.141108 5.383517,-2.701481 7.671208,-4.635089 1.504209,-1.236932 2.597332,-2.449193 3.785975,-2.986974 1.476346,-0.841651 3.621234,-0.745061 5.843873,-0.547726 2.991602,0.286407 5.923461,1.820077 8.681339,3.655279 2.690944,1.809631 5.213546,3.987378 7.850895,6.072718 1.078577,0.854997 2.192261,1.702865 3.405828,2.41565 0.917059,0.547669 1.941784,1.060743 3.056599,1.168187 0.974395,0.0852 1.93957,-0.273668 2.639583,-0.900016 1.006444,-0.913132 1.540946,-2.152527 1.9732,-3.383438 -0.549477,1.183241 -1.19373,2.382477 -2.20441,3.119538 -0.669616,0.494134 -1.539009,0.660623 -2.318182,0.508409 -0.949158,-0.171983 -1.827142,-0.68863 -2.655304,-1.277742 -1.077709,-0.779662 -2.052384,-1.701614 -3.034192,-2.644439 -2.38887,-2.300371 -4.677948,-4.743128 -7.32491,-6.93401 -2.685861,-2.244623 -5.833927,-4.238913 -9.555338,-5.054666 -2.368944,-0.556521 -5.09583,-0.837854 -7.904203,0.134918 -2.101442,0.855455 -3.663817,2.150103 -4.985013,3.100149 -2.047398,1.421921 -4.344287,2.486388 -6.722742,3.201218 -0.617147,0.189004 -1.226291,0.37484 -1.855151,0.529594 -0.228141,-3.04613 -1.524233,-6.529681 -3.97412,-10.221803 C 24.157976,12.303553 26.605522,11.661961 24.578981,9.4519563 22.121224,7.1821581 21.232838,8.6957868 18.814421,6.9509443 15.507573,5.455628 11.904865,3.3127942 8.7452081,2.218882 z M 22.987727,9.7503418 c 1.044396,0.3744142 1.613509,1.4572162 1.271651,2.4107942 -0.341856,0.953578 -1.469291,1.428169 -2.513687,1.053755 -1.044395,-0.374414 -1.613508,-1.457216 -1.271652,-2.410794 0.341857,-0.953578 1.469293,-1.4281698 2.513688,-1.0537552 z m -0.668223,0.9551092 c -0.45422,-0.08163 -0.868704,-0.0051 -1.347933,0.02359 0.44063,0.772179 0.360503,0.943862 1.188133,1.330995 0.506863,0.256301 0.89753,0.09179 1.551907,0.01333 -0.385389,-0.826399 -0.428203,-0.993896 -0.943,-1.206914 -0.167722,-0.07252 -0.2977,-0.133798 -0.449107,-0.161004 z M 69.892135,47.45407 c 0.636121,0.261069 1.233347,0.559625 1.713508,0.976311 0.326366,0.292308 0.607133,0.641652 0.645208,1.02775 0.07416,0.433444 -0.145987,0.922108 -0.41886,1.370324 -0.398901,0.635206 -0.885796,1.210177 -1.45084,1.724399 -0.838556,-0.409626 -1.68658,-0.780594 -2.572989,-1.103423 -2.04352,-0.738172 -4.207623,-1.144772 -6.350468,-1.371585 -1.8466,-0.204073 -3.618304,-0.363285 -5.218619,-0.893414 -2.239466,-0.71058 -4.261619,-2.06347 -6.171292,-3.588076 -1.235115,-0.987373 -2.509596,-1.939262 -3.795012,-2.84479 4.362403,0.883238 8.747075,1.613414 13.097994,2.342485 2.636212,0.443349 5.224154,0.876153 7.780716,1.522306 0.932746,0.236406 1.86799,0.486491 2.74065,0.837712 z M 36.306413,43.993507 c 1.181194,0.577622 2.370329,1.172791 3.528099,1.771646 0.496433,0.749224 0.939415,1.553577 1.347309,2.401716 -1.64188,-1.375029 -3.26979,-2.767105 -4.875408,-4.173362 z m -9.802919,-1.233609 c 1.808848,1.45206 3.655443,2.840396 5.489755,4.176392 3.875225,2.827487 7.81633,5.4932 11.782099,8.133684 0.502613,1.564793 1.02556,3.133535 1.564585,4.724132 C 44.02863,59.501472 42.70241,59.257779 41.333665,59.154309 38.104589,58.924815 35.070851,57.13273 32.852675,54.738208 30.4298,52.129929 28.768717,48.815579 27.39443,45.323822 27.069702,44.484265 26.784639,43.618048 26.503494,42.759898 z" id="path3806" inkscape:connector-curvature="0"/>
</svg>